HIERARCHY
ROOT Hips
{
	OFFSET 0.000000 0.000000 0.000000
	CHANNELS 6 Xposition Yposition Zposition Xrotation Yrotation Zrotation
	JOINT LeftUpLeg_virtual
	{
		OFFSET 0.000000 0.000000 0.000000
		CHANNELS 3 Xrotation Yrotation Zrotation
		JOINT LeftUpLeg
		{
			OFFSET 13.026900 -6.336304 -1.092800
			CHANNELS 3 Xrotation Yrotation Zrotation
			JOINT LeftLeg
			{
				OFFSET 0.524474 -46.096886 9.782700
				CHANNELS 3 Xrotation Yrotation Zrotation
				JOINT LeftFoot
				{
					OFFSET -0.524474 -53.427422 -12.948200
					CHANNELS 3 Xrotation Yrotation Zrotation
					JOINT LeftToeBase
					{
						OFFSET 0.192200 -14.009700 16.364100
						CHANNELS 3 Xrotation Yrotation Zrotation
						JOINT LeftToe_End
						{
							OFFSET -1.784700 -0.561700 9.474800
							CHANNELS 3 Xrotation Yrotation Zrotation
							End Site
							{
								OFFSET 0 0 0
							}
						}
					}
				}
			}
		}
	}
	JOINT RightUpLeg_virtual
	{
		OFFSET 0.000000 0.000000 0.000000
		CHANNELS 3 Xrotation Yrotation Zrotation
		JOINT RightUpLeg
		{
			OFFSET -12.883000 -6.336304 -1.092800
			CHANNELS 3 Xrotation Yrotation Zrotation
			JOINT RightLeg
			{
				OFFSET -0.524587 -46.096825 9.782800
				CHANNELS 3 Xrotation Yrotation Zrotation
				JOINT RightFoot
				{
					OFFSET 0.524587 -53.427383 -12.948300
					CHANNELS 3 Xrotation Yrotation Zrotation
					JOINT RightToeBase
					{
						OFFSET -0.192200 -14.009700 16.364100
						CHANNELS 3 Xrotation Yrotation Zrotation
						JOINT RightToe_End
						{
							OFFSET 1.784700 -0.561700 9.474800
							CHANNELS 3 Xrotation Yrotation Zrotation
							End Site
							{
								OFFSET 0 0 0
							}
						}
					}
				}
			}
		}
	}
	JOINT Spine_virtual
	{
		OFFSET 0.000000 0.000000 0.000000
		CHANNELS 3 Xrotation Yrotation Zrotation
		JOINT Spine
		{
			OFFSET 0.072000 7.257294 -0.789700
			CHANNELS 3 Xrotation Yrotation Zrotation
			JOINT Spine1
			{
				OFFSET 0.000000 12.508769 -0.658067
				CHANNELS 3 Xrotation Yrotation Zrotation
				JOINT Spine1_split
				{
					OFFSET 0.000000 12.508769 -0.658067
					CHANNELS 3 Xrotation Yrotation Zrotation
					JOINT Spine2
					{
						OFFSET 0.000000 12.508769 -0.658067
						CHANNELS 3 Xrotation Yrotation Zrotation
						JOINT Neck_virtual
						{
							OFFSET 0.000000 0.000000 0.000000
							CHANNELS 3 Xrotation Yrotation Zrotation
							JOINT Neck
							{
								OFFSET 0.000000 14.033295 7.520400
								CHANNELS 3 Xrotation Yrotation Zrotation
								JOINT Head
								{
									OFFSET 0.000000 8.198502 5.703100
									CHANNELS 3 Xrotation Yrotation Zrotation
									JOINT HeadTop_End
									{
										OFFSET 0.000000 17.760803 13.332701
										CHANNELS 3 Xrotation Yrotation Zrotation
										End Site
										{
											OFFSET 0 0 0
										}
									}
								}
							}
						}
						JOINT LeftShoulder_virtual
						{
							OFFSET 0.000000 0.000000 0.000000
							CHANNELS 3 Xrotation Yrotation Zrotation
							JOINT LeftShoulder
							{
								OFFSET 6.292450 5.785301 -0.669000
								CHANNELS 3 Xrotation Yrotation Zrotation
								JOINT LeftShoulder_split
								{
									OFFSET 6.292450 5.785301 -0.669000
									CHANNELS 3 Xrotation Yrotation Zrotation
									JOINT LeftArm
									{
										OFFSET 13.907140 -6.093903 1.965100
										CHANNELS 3 Xrotation Yrotation Zrotation
										JOINT LeftForeArm
										{
											OFFSET 34.140198 0.000000 0.000000
											CHANNELS 3 Xrotation Yrotation Zrotation
											JOINT LeftHand
											{
												OFFSET 40.960209 0.000000 0.000000
												CHANNELS 3 Xrotation Yrotation Zrotation
												End Site
												{
													OFFSET 0 0 0
												}
											}
										}
									}
								}
							}
						}
						JOINT RightShoulder_virtual
						{
							OFFSET 0.000000 0.000000 0.000000
							CHANNELS 3 Xrotation Yrotation Zrotation
							JOINT RightShoulder
							{
								OFFSET -6.292450 5.785301 -0.669000
								CHANNELS 3 Xrotation Yrotation Zrotation
								JOINT RightShoulder_split
								{
									OFFSET -6.292450 5.785301 -0.669000
									CHANNELS 3 Xrotation Yrotation Zrotation
									JOINT RightArm
									{
										OFFSET -13.907140 -6.093903 1.965100
										CHANNELS 3 Xrotation Yrotation Zrotation
										JOINT RightForeArm
										{
											OFFSET -34.140198 0.000000 0.000000
											CHANNELS 3 Xrotation Yrotation Zrotation
											JOINT RightHand
											{
												OFFSET -40.960209 0.000000 0.000000
												CHANNELS 3 Xrotation Yrotation Zrotation
												End Site
												{
													OFFSET 0 0 0
												}
											}
										}
									}
								}
							}
						}
					}
				}
			}
		}
	}
}
MOTION
Frames: 8
Frame Time: 0.03333333
2.663960 99.422981 0.493893 0.000000 0.000000 0.000000 -29.894427 -57.309672 -13.437342 -22.843532 -1.423102 24.442518 47.578958 -15.874828 -1.882026 2.900845 3.537834 -17.974818 -10.841523 -1.364762 0.197147 0.000000 0.000000 0.000000 -27.577340 -53.554646 -11.385545 -24.752266 1.624434 -26.046139 54.156099 8.396236 -4.349556 -17.641320 -8.836443 22.694135 -4.176367 1.538126 -1.614922 0.000000 0.000000 0.000000 -26.557959 -46.159528 -12.361104 12.627307 5.620984 1.535218 13.241342 2.661747 -6.688511 1.573387 -1.568243 1.381498 0.000000 0.000000 0.000000 11.135811 2.353278 -4.805181 3.485318 -1.845227 0.320546 -18.152148 30.542926 -12.309098 0.000000 0.000000 0.000000 14.584424 1.649345 -4.538200 1.440586 -11.828544 6.537623 -8.900445 -1.472154 -2.090767 -25.823105 27.086186 -59.323608 170.637592 -50.885039 173.185962 0.000000 0.000000 0.000000 12.824201 1.754705 -3.964284 13.122756 27.862852 -0.625073 -6.982888 -2.390359 2.036223 -55.780396 41.951596 53.258018 171.121961 76.354261 -172.311848 0.000000 0.000000 0.000000 
0.777760 99.111237 -1.001614 0.000000 0.000000 0.000000 -26.371939 -56.258728 -10.120410 -26.748281 -1.191101 21.975601 41.149748 -13.816519 -2.681395 6.400157 2.204172 -14.489341 -10.544811 -1.266264 -0.032729 0.000000 0.000000 0.000000 -25.201950 -53.306618 -9.277436 -24.402833 1.859721 -26.099208 59.095200 8.633019 -4.976622 -18.189979 -9.494704 22.280238 -4.833605 1.259042 -1.355175 0.000000 0.000000 0.000000 -23.894281 -46.015924 -10.053216 12.953683 5.280947 0.917716 13.711132 2.719378 -6.765313 1.721127 -0.371583 1.553884 0.000000 0.000000 0.000000 11.812104 2.176918 -5.019811 4.583262 -1.189548 -0.169552 -17.299915 29.141187 -11.805011 0.000000 0.000000 0.000000 15.263914 1.493935 -4.676733 1.664687 -11.916110 6.248532 -6.412273 -2.791772 -2.003365 -27.844332 25.522006 -57.616150 170.057640 -52.457513 172.507561 0.000000 0.000000 0.000000 13.194219 1.624028 -4.164265 12.735751 27.225655 -0.638083 -7.019202 -1.062215 2.986850 -56.760272 40.746545 53.935979 174.200519 74.174106 -175.243844 0.000000 0.000000 0.000000 
-1.006180 99.200691 -3.181580 0.000000 0.000000 0.000000 -19.877951 -52.534216 -4.361921 -32.839628 -1.866734 19.383489 32.370292 -13.048422 -2.866268 16.055954 -2.333096 -14.707554 -10.988616 -1.403254 0.231046 0.000000 0.000000 0.000000 -20.217146 -50.648431 -4.739188 -22.904836 1.361653 -25.836282 64.123653 7.734939 -5.101136 -20.576869 -11.595259 19.249563 -4.853692 0.815356 -0.550919 0.000000 0.000000 0.000000 -18.668729 -43.690265 -5.462963 15.304417 5.240322 -0.053240 14.172417 2.983183 -6.917850 2.242203 0.205512 2.045142 0.000000 0.000000 0.000000 12.454464 2.296696 -5.495498 3.571200 -0.848615 -1.145774 -18.138023 25.865332 -9.446189 0.000000 0.000000 0.000000 15.621435 1.684153 -5.013729 1.767805 -12.824324 4.815852 -5.184564 -4.161926 -1.289059 -30.314599 20.196731 -53.652847 169.995185 -54.013064 172.875448 0.000000 0.000000 0.000000 13.741620 1.744386 -4.681249 12.353133 26.065371 -1.308086 -7.714794 -0.509371 4.165729 -57.795258 37.271622 52.847229 177.871144 71.907159 -178.766227 0.000000 0.000000 0.000000 
-2.542818 100.016403 -5.720730 0.000000 0.000000 0.000000 -12.710296 -46.381267 1.530208 -40.411084 -3.073871 17.303185 23.509795 -12.706129 -2.737323 28.654177 -8.312863 -16.167418 -12.156431 -1.650053 1.070202 0.000000 0.000000 0.000000 -14.146158 -45.762397 0.472336 -20.854671 0.348020 -25.161230 66.731262 6.423616 -4.791483 -23.728982 -13.954216 15.015826 -4.479537 0.410177 0.459394 0.000000 0.000000 0.000000 -12.417471 -39.229205 -0.230785 19.514146 5.284058 -1.063861 14.602962 3.280243 -6.980868 2.389994 -0.075387 2.969872 0.000000 0.000000 0.000000 13.076080 2.613928 -5.936003 0.713053 -0.760793 -2.519092 -20.081939 21.203199 -6.046314 0.000000 0.000000 0.000000 15.656733 2.074677 -5.367853 1.798988 -14.423828 2.907227 -5.209140 -4.788380 -0.689649 -33.173064 12.387229 -48.368384 170.628740 -55.318973 174.282126 0.000000 0.000000 0.000000 14.365775 2.023529 -5.237874 12.132143 24.868821 -2.919079 -8.900544 -0.659881 5.217692 -58.862195 32.522175 49.454941 -178.850266 70.660998 178.150007 0.000000 0.000000 0.000000 
-3.878756 101.475220 -8.988644 0.000000 0.000000 0.000000 -6.552585 -38.697116 6.085965 -49.477583 -4.695217 15.571764 16.842019 -11.908422 -2.390122 40.920794 -13.263173 -16.663773 -12.312687 -1.791405 1.961933 0.000000 0.000000 0.000000 -8.281686 -39.065506 4.895628 -18.769782 -0.801205 -24.214733 65.789748 5.462705 -4.345778 -26.353933 -15.253534 11.830346 -4.039517 0.231801 1.252935 0.000000 0.000000 0.000000 -6.663829 -33.032694 4.249177 25.332398 5.214488 -1.822085 14.983535 3.481074 -6.822633 2.238251 0.107605 3.414455 0.000000 0.000000 0.000000 13.718223 2.934360 -6.045497 -3.311134 -0.917463 -4.042780 -22.365477 15.957185 -2.594494 0.000000 0.000000 0.000000 15.472527 2.486482 -5.493603 1.823968 -16.450618 1.368686 -5.651789 -4.464285 -0.397087 -36.871280 3.713911 -42.776365 171.953195 -56.880381 176.594514 0.000000 0.000000 0.000000 15.003166 2.282401 -5.577548 12.106155 23.982199 -5.687248 -9.841480 -0.909251 5.694778 -60.737539 27.174005 43.570535 -175.593932 71.757291 175.063786 0.000000 0.000000 0.000000 
-5.149449 102.954254 -12.318546 0.000000 0.000000 0.000000 -2.129040 -30.719404 8.961831 -58.883409 -6.054789 13.762957 13.320480 -9.988007 -2.066338 49.771585 -15.059498 -15.836962 -10.100875 -1.735080 2.164719 0.000000 0.000000 0.000000 -3.658228 -31.522443 7.845547 -17.182437 -2.106953 -23.303021 61.456826 5.023811 -3.857995 -27.427359 -15.367089 11.029705 -3.852829 0.310859 1.553865 0.000000 0.000000 0.000000 -2.667953 -26.540075 7.342990 32.206162 4.952452 -2.154291 15.286469 3.486417 -6.393562 1.997822 0.244062 3.621879 0.000000 0.000000 0.000000 14.350716 3.104441 -5.711204 -7.521430 -1.120213 -5.545404 -24.227050 11.072438 0.335567 0.000000 0.000000 0.000000 15.264786 2.741360 -5.243978 2.014189 -18.482328 1.039320 -5.938747 -3.617947 -0.280197 -42.934723 -4.602630 -38.226588 173.936354 -59.880337 179.601327 0.000000 0.000000 0.000000 15.525486 2.412087 -5.534714 12.275010 23.508198 -9.597477 -10.519618 -1.075330 5.383781 -64.216517 22.439637 35.527448 -170.897098 76.048105 170.460498 0.000000 0.000000 0.000000 
-6.562878 103.937607 -15.438648 0.000000 0.000000 0.000000 0.477757 -22.846044 10.667595 -67.219853 -5.995516 11.791672 12.790620 -6.163982 -1.794643 52.885339 -12.820654 -13.675044 -6.354499 -1.562521 1.714831 0.000000 0.000000 0.000000 -0.601043 -23.955548 9.563214 -16.260068 -3.875016 -22.499376 55.676960 4.731864 -3.221999 -27.666767 -14.831257 11.945974 -3.331972 0.559210 1.250908 0.000000 0.000000 0.000000 -0.442768 -20.239664 9.161480 39.462548 4.605973 -1.961013 15.453950 3.308778 -5.715750 1.777005 0.602702 3.156979 0.000000 0.000000 0.000000 14.892036 3.082424 -4.996216 -10.910875 -1.175200 -6.560424 -25.062011 6.809552 2.480049 0.000000 0.000000 0.000000 15.194470 2.791755 -4.635886 2.433826 -20.021132 2.128039 -5.482199 -2.764285 -0.319100 -52.254058 -12.288582 -36.060294 176.492607 -64.954662 -177.018545 0.000000 0.000000 0.000000 15.752528 2.317791 -5.106546 12.653179 23.325610 -14.277140 -10.910044 -0.960761 4.396427 -69.430451 19.128186 26.545226 -157.108845 83.034910 156.541092 0.000000 0.000000 0.000000 
-8.075475 104.140121 -18.606846 0.000000 0.000000 0.000000 1.214323 -15.529299 11.601624 -72.777489 -3.938106 9.597579 14.614738 -1.103338 -1.715177 50.194913 -7.902187 -10.061997 -3.381984 -1.368532 0.854912 0.000000 0.000000 0.000000 0.545210 -17.041865 10.547427 -16.019876 -6.158361 -21.925320 51.395889 3.927523 -2.221999 -28.426638 -14.109081 12.991465 -1.981830 0.859636 0.551634 0.000000 0.000000 0.000000 0.199786 -14.174342 10.140566 46.413567 4.229456 -1.295252 15.456520 3.004104 -4.874898 1.764720 0.973688 2.521947 0.000000 0.000000 0.000000 15.200852 2.850754 -4.044716 -12.798941 -1.189445 -6.822233 -24.524667 3.143112 3.802697 0.000000 0.000000 0.000000 15.230270 2.607242 -3.767628 3.023117 -20.893289 4.327409 -5.049857 -1.938825 -0.602941 -64.869039 -18.946082 -37.385781 -179.739870 -72.943832 -172.709543 0.000000 0.000000 0.000000 15.848858 1.986928 -4.443983 13.013559 23.220323 -18.746101 -10.571951 -0.329469 3.392316 -75.448674 17.519654 18.279333 -54.656236 86.514680 53.743009 0.000000 0.000000 0.000000 
